<svg xmlns="http://www.w3.org/2000/svg" xmlns:xlink="http://www.w3.org/1999/xlink" width="200" zoomAndPan="magnify" viewBox="0 0 150 149.999998" height="200" preserveAspectRatio="xMidYMid meet" version="1.0"><defs><g/><clipPath id="2dc9eb64ce"><path d="M 1.6875 1.6875 L 148.3125 1.6875 L 148.3125 148.3125 L 1.6875 148.3125 Z M 1.6875 1.6875 " clip-rule="nonzero"/></clipPath><clipPath id="a35548d766"><path d="M 75 1.6875 C 34.507812 1.6875 1.6875 34.507812 1.6875 75 C 1.6875 115.492188 34.507812 148.3125 75 148.3125 C 115.492188 148.3125 148.3125 115.492188 148.3125 75 C 148.3125 34.507812 115.492188 1.6875 75 1.6875 " clip-rule="nonzero"/></clipPath><clipPath id="8fa4adc59c"><path d="M 1.6875 1.6875 L 148.6875 1.6875 L 148.6875 148.6875 L 1.6875 148.6875 Z M 1.6875 1.6875 " clip-rule="nonzero"/></clipPath><clipPath id="d47659c6e5"><path d="M 75.1875 1.6875 C 34.59375 1.6875 1.6875 34.59375 1.6875 75.1875 C 1.6875 115.777344 34.59375 148.6875 75.1875 148.6875 C 115.777344 148.6875 148.6875 115.777344 148.6875 75.1875 C 148.6875 34.59375 115.777344 1.6875 75.1875 1.6875 " clip-rule="nonzero"/></clipPath></defs><g clip-path="url(#2dc9eb64ce)"><g clip-path="url(#a35548d766)"><path fill="#000000" d="M 1.6875 1.6875 L 148.3125 1.6875 L 148.3125 148.3125 L 1.6875 148.3125 Z M 1.6875 1.6875 " fill-opacity="1" fill-rule="nonzero"/></g></g><g clip-path="url(#8fa4adc59c)"><g clip-path="url(#d47659c6e5)"><path stroke-linecap="butt" transform="matrix(0.751918, 0, 0, 0.751918, 1.685669, 1.68567)" fill="none" stroke-linejoin="miter" d="M 97.752442 0.00243431 C 43.765512 0.00243431 0.00243531 43.765511 0.00243531 97.752441 C 0.00243531 151.734175 43.765512 195.502447 97.752442 195.502447 C 151.734176 195.502447 195.502448 151.734175 195.502448 97.752441 C 195.502448 43.765511 151.734176 0.00243431 97.752442 0.00243431 " stroke="#000000" stroke-width="6" stroke-opacity="1" stroke-miterlimit="4"/></g></g><g fill="#ffffff" fill-opacity="1"><g transform="translate(46.207031, 89.249997)"><g><path d="M 26.921875 -8.328125 C 26.742188 -5.566406 25.675781 -3.375 23.71875 -1.75 C 21.757812 -0.132812 19.171875 0.671875 15.953125 0.671875 C 11.710938 0.671875 8.34375 -0.578125 5.84375 -3.078125 C 3.34375 -5.585938 2.09375 -9 2.09375 -13.3125 C 2.09375 -18 3.445312 -21.796875 6.15625 -24.703125 C 8.875 -27.609375 12.378906 -29.0625 16.671875 -29.0625 C 18.210938 -29.0625 19.875 -28.773438 21.65625 -28.203125 C 23.4375 -27.628906 24.460938 -27.34375 24.734375 -27.34375 C 24.992188 -27.34375 25.222656 -27.421875 25.421875 -27.578125 C 25.628906 -27.742188 25.8125 -27.984375 25.96875 -28.296875 L 26.578125 -28.296875 L 26.796875 -19.28125 L 26.25 -19.28125 C 25.457031 -22.132812 24.28125 -24.328125 22.71875 -25.859375 C 21.164062 -27.398438 19.335938 -28.171875 17.234375 -28.171875 C 14.234375 -28.171875 11.828125 -26.851562 10.015625 -24.21875 C 8.203125 -21.59375 7.296875 -18.113281 7.296875 -13.78125 C 7.296875 -9.738281 8.203125 -6.554688 10.015625 -4.234375 C 11.828125 -1.921875 14.300781 -0.765625 17.4375 -0.765625 C 19.882812 -0.765625 21.898438 -1.445312 23.484375 -2.8125 C 25.066406 -4.175781 25.960938 -6.015625 26.171875 -8.328125 Z M 26.921875 -8.328125 "/></g></g><g transform="translate(75.307615, 89.249997)"><g><path d="M 10.296875 -14.65625 L 10.296875 -7.9375 C 10.296875 -4.832031 10.578125 -2.878906 11.140625 -2.078125 C 11.703125 -1.273438 12.835938 -0.875 14.546875 -0.875 C 16.910156 -0.875 18.703125 -1.457031 19.921875 -2.625 C 21.148438 -3.800781 21.765625 -5.515625 21.765625 -7.765625 C 21.765625 -10.078125 21.035156 -11.800781 19.578125 -12.9375 C 18.117188 -14.082031 15.921875 -14.65625 12.984375 -14.65625 Z M 1.765625 0 L 1.765625 -0.59375 L 2.09375 -0.59375 C 3.570312 -0.59375 4.566406 -1.085938 5.078125 -2.078125 C 5.585938 -3.066406 5.84375 -5.75 5.84375 -10.125 L 5.84375 -18.265625 C 5.84375 -22.628906 5.585938 -25.3125 5.078125 -26.3125 C 4.566406 -27.3125 3.570312 -27.8125 2.09375 -27.8125 L 1.765625 -27.8125 L 1.765625 -28.390625 L 14.109375 -28.390625 C 17.535156 -28.390625 20.0625 -27.867188 21.6875 -26.828125 C 23.3125 -25.796875 24.125 -24.1875 24.125 -22 C 24.125 -20.414062 23.578125 -19.070312 22.484375 -17.96875 C 21.390625 -16.875 19.828125 -16.109375 17.796875 -15.671875 C 20.773438 -15.242188 22.992188 -14.363281 24.453125 -13.03125 C 25.921875 -11.695312 26.65625 -9.890625 26.65625 -7.609375 C 26.65625 -6.148438 26.304688 -4.84375 25.609375 -3.6875 C 24.910156 -2.53125 23.945312 -1.664062 22.71875 -1.09375 C 21.875 -0.707031 20.925781 -0.425781 19.875 -0.25 C 18.820312 -0.0820312 17.082031 0 14.65625 0 Z M 10.296875 -27.5 L 10.296875 -15.546875 L 11.890625 -15.546875 C 14.535156 -15.546875 16.429688 -15.992188 17.578125 -16.890625 C 18.734375 -17.785156 19.3125 -19.238281 19.3125 -21.25 C 19.3125 -23.34375 18.738281 -24.90625 17.59375 -25.9375 C 16.445312 -26.976562 14.710938 -27.5 12.390625 -27.5 Z M 10.296875 -27.5 "/></g></g></g></svg>